# xmcd
#
# Track frame offsets:
#	150
#	14172
#	30441
#	43185
#	65142
#	78176
#	92333
#	105773
#	118155
#	132070
#	145612
#	158423
#	180329
#	193363
#	207537
#	220749
#
# Disc length: 3106 seconds
#
# Revision: 1
# Processed by: cddbd v1.5.2PL0 Copyright (c) Steve Scherf et al.
# Submitted via: audiograbber 1.83.01
#
DISCID=d40c2010
DTITLE=COMPLIATION - CDGA002
DYEAR=1900
DGENRE=
TTITLE0=STEVIE WONDER - A PLACE IN THE SUN
TTITLE1=CAROLE KING - WILL YOU STILL LOVE ME TOMORROW
TTITLE2=EVERLY BROTHERS - ALL I HAVE TO DO IS DREAM
TTITLE3=ROBERTA FLACK - KILLING ME SOFTLY WITH HIS SONG
TTITLE4=PATSY CLINE - I FALL TO PIECES
TTITLE5=TRADITIONAL - COTTON FIELDS
TTITLE6=LULU - TO SIR WITH LOVE
TTITLE7=PATSY CLINE - CRAZY
TTITLE8=STEVIE WONDER - A PLACE IN THE SUN (VOCAL)
TTITLE9=CAROLE KING - WILL YOU STILL LOVE ME TOMORROW (VOCAL)
TTITLE10=EVERLY BROTHERS - ALL I HAVE TO DO IS DREAM (VOCAL)
TTITLE11=ROBERTA FLACK - KILLING ME SOFTLY WITH HIS SONG (VOCAL)
TTITLE12=PATSY CLINE - I FALL TO PIECES (VOCAL)
TTITLE13=TRADITIONAL - COTTON FIELDS (VOCAL)
TTITLE14=LULU - TO SIR WITH LOVE (VOCAL)
TTITLE15=PATSY CLINE - CRAZY (VOCAL)
EXTD=
EXTT0=
EXTT1=
EXTT2=
EXTT3=
EXTT4=
EXTT5=
EXTT6=
EXTT7=
EXTT8=
EXTT9=
EXTT10=
EXTT11=
EXTT12=
EXTT13=
EXTT14=
EXTT15=
PLAYORDER=
